<svg width="817" height="817" xmlns="http://www.w3.org/2000/svg">
 <metadata id="metadata821">image/svg+xml</metadata>
 <defs>
  <clipPath clipPathUnits="userSpaceOnUse" id="clipPath828">
   <rect fill="#00ff00" stroke-miterlimit="4" id="rect830" width="17.105249" height="14.699824" x="13.363476" y="83.718918"/>
  </clipPath>
  <clipPath clipPathUnits="userSpaceOnUse" id="clipPath828-1">
   <rect fill="#00ff00" stroke-miterlimit="4" id="rect830-8" width="17.105249" height="14.699824" x="13.363476" y="83.718918"/>
  </clipPath>
 </defs>
 <g>
  <title>background</title>
  <rect fill="none" id="canvas_background" height="819" width="819" y="-1" x="-1"/>
 </g>
 <g>
  <title>Layer 1</title>
  <g id="layer3"/>
  <g id="layer4">
   <g display="none" transform="translate(3, -48) translate(1, -163) matrix(3.55251, 0, 0, 3.55251, 29.128, 34.1926)" id="layer2-7">
    <rect fill="none" stroke="#000000" stroke-miterlimit="4" y="93.252838" x="31.564672" height="109.4888" width="109.4888" id="rect1131"/>
   </g>
   <g font-style="normal" font-weight="normal" font-size="76.551613px" font-family="Tahoma" fill="#0000fd" stroke-width="0.56599" stroke-miterlimit="4" transform="matrix(6.35393, 0, 0, -7.38564, -135.421, -346.851)" id="text834">
    <g transform="matrix(1.0375, 0, 0, 1.0375, -1.76079, 2.9436)" id="g22">
     <path fill="#ff0000" stroke-width="1.896462px" d="m22.82476,-50.964481c25.565941,-14.515316 31.123619,-23.195629 53.774918,-48.099117l-38.586819,-34.666168l20.318722,-5.797241l29.785248,26.759399c6.358833,-8.190781 12.487251,-17.20253 18.337349,-27.206497l24.867004,12.152023c-3.238861,4.806564 -14.83506,17.10434 -27.763885,28.927063l28.432236,25.544052l-7.311172,17.480358l-34.761459,-31.228924c-4.692192,3.79892 -9.243202,7.181625 -13.320038,9.763947c-15.881111,10.059326 -22.711662,15.211716 -53.772102,26.371105z" id="path838"/>
     <path fill="#0000fd" stroke-width="0.56599" stroke-miterlimit="4" id="path860" d="m85.39492,-101.455719q0,3.737869 -1.308258,7.326225q-1.30825,3.550987 -3.737869,5.980591q-3.326706,3.28933 -7.438362,4.971382q-4.07428,1.682037 -10.167023,1.682037l-8.93351,0l0,18.128674l-14.353428,0l0,-55.656902l23.623348,0q5.307785,0 8.933525,0.934464q3.663109,0.897102 6.466507,2.728645q3.36409,2.20536 5.120888,5.64418q1.794182,3.43885 1.794182,8.260704zm-14.839348,0.336411q0,-2.354858 -1.270882,-4.036888q-1.270874,-1.719437 -2.952919,-2.39225q-2.242722,-0.897095 -4.37331,-0.97184q-2.130592,-0.112144 -5.681561,-0.112144l-2.467003,0l0,16.670914l4.11166,0q3.663113,0 6.017971,-0.448563q2.392242,-0.448532 3.999527,-1.794167q1.383011,-1.196114 1.981087,-2.840782q0.635429,-1.682045 0.635429,-4.07428z"/>
     <path fill="#0000fd" stroke-width="0.56599" stroke-miterlimit="4" d="m146.521301,-101.455719q0,3.737869 -1.308243,7.326225q-1.308273,3.550987 -3.737869,5.980591q-3.326721,3.28933 -7.438385,4.971382q-4.07428,1.682037 -10.166985,1.682037l-8.93351,0l0,18.128674l-14.353432,0l0,-55.656902l23.623352,0q5.307762,0 8.933495,0.934464q3.663116,0.897102 6.466522,2.728645q3.364075,2.20536 5.12088,5.64418q1.794174,3.43885 1.794174,8.260704zm-14.839355,0.336411q0,-2.354858 -1.270874,-4.036888q-1.270874,-1.719437 -2.952888,-2.39225q-2.242737,-0.897095 -4.373314,-0.97184q-2.130592,-0.112144 -5.681572,-0.112144l-2.466988,0l0,16.670914l4.111649,0q3.663109,0 6.017975,-0.448563q2.39225,-0.448532 3.999512,-1.794167q1.383011,-1.196114 1.981064,-2.840782q0.635437,-1.682045 0.635437,-4.07428z" id="path863"/>
    </g>
   </g>
  </g>
 </g>
</svg>