<svg width="850" height="850" xmlns="http://www.w3.org/2000/svg">
 <metadata id="metadata821">image/svg+xml</metadata>
 <defs>
  <clipPath id="clipPath828" clipPathUnits="userSpaceOnUse">
   <rect y="83.718918" x="13.363476" height="14.699824" width="17.105249" id="rect830" stroke-miterlimit="4" fill="#00ff00"/>
  </clipPath>
  <clipPath id="clipPath828-1" clipPathUnits="userSpaceOnUse">
   <rect y="83.718918" x="13.363476" height="14.699824" width="17.105249" id="rect830-8" stroke-miterlimit="4" fill="#00ff00"/>
  </clipPath>
 </defs>
 <g>
  <title>background</title>
  <rect x="-1" y="-1" width="852" height="852" id="canvas_background" fill="none"/>
 </g>
 <g>
  <title>Layer 1</title>
  <g id="layer3"/>
  <g id="layer4">
   <g id="layer2-7" transform="translate(-2, -180) matrix(3.55251, 0, 0, 3.55251, 29.128, 34.1926)" display="none">
    <rect id="rect1131" width="109.4888" height="109.4888" x="31.564672" y="93.252838" stroke-miterlimit="4" stroke="#000000" fill="none"/>
   </g>
   <g id="g29" transform="matrix(0.99523, 0, 0, 0.99523, 3.88746, 0.954866)">
    <path id="path838" d="m259.812073,359.671967c109.920441,72.541992 217.574066,154.478302 314.963074,278.936432l-165.903564,173.248291l87.360107,28.97229l128.061279,-133.733276c27.339722,40.934448 53.688782,85.97168 78.841248,135.967773l106.915405,-60.731079c-13.925537,-24.021484 -63.783203,-85.481079 -119.370544,-144.566528l122.24408,-127.659393l-31.434326,-87.360107l-149.456543,156.07016c-20.174011,-18.985474 -39.740967,-35.890991 -57.269287,-48.796387c-68.28064,-50.272736 -181.406952,-114.57785 -314.950928,-170.348175z" stroke-width="1.283272px" fill="#ff0000"/>
    <g transform="matrix(7.21581, 0, 0, -8.38747, -278.191, -568.972)" id="text834" stroke-miterlimit="4" stroke-width="0.56599" fill="#0000fd" font-family="Tahoma" font-size="76.551613px" font-weight="normal" font-style="normal">
     <path d="m84.509644,-108.226738q0,3.737877 -1.30825,7.326225q-1.30825,3.55098 -3.737877,5.980591q-3.326698,3.28933 -7.43837,4.971382q-4.07428,1.682037 -10.167007,1.682037l-8.933517,0l0,18.12867l-14.353432,0l0,-55.656898l23.623348,0q5.307789,0 8.933529,0.934464q3.663116,0.897079 6.466499,2.728645q3.36409,2.205345 5.120895,5.64418q1.794182,3.43885 1.794182,8.260704zm-14.83934,0.336411q0,-2.354851 -1.270897,-4.036911q-1.270859,-1.719398 -2.952919,-2.39222q-2.242718,-0.897102 -4.373306,-0.971855q-2.130581,-0.112137 -5.681561,-0.112137l-2.466999,0l0,16.670914l4.11166,0q3.66312,0 6.017979,-0.448555q2.392227,-0.44854 3.999527,-1.794182q1.383003,-1.196106 1.981064,-2.840775q0.635452,-1.682045 0.635452,-4.07428z" id="path860" stroke-miterlimit="4" stroke-width="0.56599" fill="#0000fd"/>
     <path id="path863" d="m145.636032,-108.226738q0,3.737877 -1.308243,7.326225q-1.308258,3.55098 -3.737869,5.980591q-3.326706,3.28933 -7.43837,4.971382q-4.07428,1.682037 -10.167007,1.682037l-8.93351,0l0,18.12867l-14.353432,0l0,-55.656898l23.623352,0q5.30777,0 8.933502,0.934464q3.663116,0.897079 6.466522,2.728645q3.364075,2.205345 5.12088,5.64418q1.794174,3.43885 1.794174,8.260704zm-14.83934,0.336411q0,-2.354851 -1.270889,-4.036911q-1.270859,-1.719398 -2.952896,-2.39222q-2.242729,-0.897102 -4.373314,-0.971855q-2.130585,-0.112137 -5.681572,-0.112137l-2.466988,0l0,16.670914l4.111649,0q3.663132,0 6.017975,-0.448555q2.39225,-0.44854 3.999519,-1.794182q1.383011,-1.196106 1.981064,-2.840775q0.635452,-1.682045 0.635452,-4.07428z" stroke-miterlimit="4" stroke-width="0.56599" fill="#0000fd"/>
    </g>
    <path d="m242.401474,598.453979c-34.437469,-6.854492 -66.347351,18.896484 -75.912003,55.384155c-9.564682,36.487671 2.507294,76.094238 32.425171,95.269897c29.917816,19.175781 69.08783,7.12207 87.748596,-24.660767l-26.833588,-15.756714c-11.670837,19.877563 -28.398254,24.302124 -44.125031,14.222046c-8.777313,-5.625732 -15.303818,-16.602417 -18.598114,-29.295044l97.138794,0l0,-15.559326c0,-18.276245 -3.870667,-35.673828 -12.277191,-50.126709c-8.406525,-14.453125 -22.16864,-26.014526 -39.566635,-29.477539zm-6.07782,30.51062c7.93692,1.579834 13.833679,6.164795 18.750076,14.617188c2.926453,5.031372 4.898163,11.675049 6.27536,18.917236l-64.83519,0c0.06221,-0.252319 0.01001,-0.508789 0.076202,-0.76001c6.39241,-24.385986 23.501419,-36.005615 39.73378,-32.774658l-0.000229,0.000244z" id="path940" stroke-dashoffset="0" stroke-miterlimit="4" stroke-width="4.403186" fill-rule="nonzero" fill="#ff0000" clip-rule="nonzero"/>
    <path d="m305.550903,544.681885l0,213.69519l31.116547,0l0,-13.266724c10.616241,8.553589 23.544617,13.660767 37.942963,13.660767c39.324432,0 67.752869,-37.99231 67.752869,-80.714233c0,-42.72168 -28.428436,-80.726074 -67.752869,-80.726074c-14.398346,0 -27.326721,5.108521 -37.942963,13.664795l0,-66.313721l-31.116547,0zm69.059509,83.765503c18.331024,0 36.632233,20.360229 36.632233,49.609497c0,29.24939 -18.301208,49.597534 -36.632233,49.597534c-18.331146,0 -36.636383,-20.348145 -36.636383,-49.597534c0,-29.249268 18.305237,-49.609497 36.636383,-49.609497z" id="ellipse957" stroke-dashoffset="0" stroke-miterlimit="4" stroke-linejoin="bevel" stroke-width="4.403186" fill-rule="nonzero" fill="#ff0000" clip-rule="nonzero"/>
    <path d="m27.37834,544.681274l-32.11052,0l36.00137,213.700684l32.110521,0l21.15028,-102.203613l21.150307,102.203613l32.110504,0l36.001343,-213.700684l-32.110504,0l-21.505219,127.618164l-20.132782,-97.868042l-31.027283,0l-20.132809,97.868164l-21.505199,-127.618286l-0.00001,0z" id="path866" stroke-dashoffset="0" stroke-miterlimit="4" stroke-linejoin="bevel" stroke-width="4.403186" fill-rule="nonzero" fill="#ff0000" clip-rule="nonzero"/>
   </g>
  </g>
 </g>
</svg>