<svg width="817" height="755" xmlns="http://www.w3.org/2000/svg">
 <metadata id="metadata821">image/svg+xml</metadata>
 <defs>
  <clipPath id="clipPath828" clipPathUnits="userSpaceOnUse">
   <rect y="83.718918" x="13.363476" height="14.699824" width="17.105249" id="rect830" stroke-miterlimit="4" fill="#00ff00"/>
  </clipPath>
  <clipPath id="clipPath828-1" clipPathUnits="userSpaceOnUse">
   <rect y="83.718918" x="13.363476" height="14.699824" width="17.105249" id="rect830-8" stroke-miterlimit="4" fill="#00ff00"/>
  </clipPath>
 </defs>
 <g>
  <title>background</title>
  <rect x="-1" y="-1" width="819" height="757" id="canvas_background" fill="none"/>
 </g>
 <g>
  <title>Layer 1</title>
  <g id="layer3"/>
  <g id="layer4">
   <g id="layer2-7" transform="translate(3, -48) translate(1, -163) matrix(3.55251, 0, 0, 3.55251, 29.128, 34.1926)" display="none">
    <rect id="rect1131" width="109.4888" height="109.4888" x="31.564672" y="93.252838" stroke-miterlimit="4" stroke="#000000" fill="none"/>
   </g>
   <g id="text834" transform="matrix(6.35393, 0, 0, -7.38564, -135.421, -346.851)" stroke-miterlimit="4" stroke-width="0.56599" fill="#0000fd" font-family="Tahoma" font-size="76.551613px" font-weight="normal" font-style="normal">
    <g id="g22" transform="matrix(1.0375, 0, 0, 1.0375, -1.76079, 2.9436)">
     <path id="path838" d="m22.824762,-50.964481c25.565935,-14.515316 31.123621,-23.195629 53.774923,-48.099117l-38.586823,-34.666168l20.318718,-5.797241l29.785255,26.759399c6.358826,-8.190781 12.487244,-17.20253 18.337349,-27.206497l24.866997,12.152023c-3.238861,4.806564 -14.83506,17.10434 -27.763878,28.927063l28.432228,25.544052l-7.311172,17.480358l-34.761459,-31.228924c-4.692192,3.79892 -9.243195,7.181625 -13.320038,9.763947c-15.881111,10.059326 -22.711666,15.211716 -53.7721,26.371105z" stroke-width="1.896462px" fill="#ff0000"/>
     <path d="m85.39492,-101.455719q0,3.737869 -1.308258,7.326233q-1.30825,3.55098 -3.737869,5.980591q-3.326706,3.289322 -7.438362,4.971375q-4.07428,1.682037 -10.167019,1.682037l-8.93351,0l0,18.128677l-14.353432,0l0,-55.656906l23.623348,0q5.307785,0 8.933517,0.934464q3.663116,0.897095 6.466515,2.728653q3.36409,2.205353 5.120888,5.64418q1.794182,3.438843 1.794182,8.260696zm-14.839348,0.336411q0,-2.354858 -1.270882,-4.036896q-1.270874,-1.719421 -2.952919,-2.392242q-2.242722,-0.897095 -4.37331,-0.971848q-2.130589,-0.112137 -5.681564,-0.112137l-2.466995,0l0,16.670914l4.111656,0q3.663116,0 6.017975,-0.448563q2.392239,-0.448532 3.999523,-1.794174q1.383018,-1.196106 1.981079,-2.840775q0.635437,-1.682037 0.635437,-4.07428z" id="path860" stroke-miterlimit="4" stroke-width="0.56599" fill="#0000fd"/>
     <path id="path863" d="m146.521301,-101.455719q0,3.737869 -1.308243,7.326233q-1.308273,3.55098 -3.737869,5.980591q-3.326721,3.289322 -7.438385,4.971375q-4.07428,1.682037 -10.166985,1.682037l-8.93351,0l0,18.128677l-14.353432,0l0,-55.656906l23.623352,0q5.307762,0 8.933495,0.934464q3.663116,0.897095 6.466522,2.728653q3.364075,2.205353 5.12088,5.64418q1.794174,3.438843 1.794174,8.260696zm-14.839355,0.336411q0,-2.354858 -1.270874,-4.036896q-1.270874,-1.719421 -2.952896,-2.392242q-2.242729,-0.897095 -4.373306,-0.971848q-2.130592,-0.112137 -5.681572,-0.112137l-2.466988,0l0,16.670914l4.111649,0q3.663116,0 6.017975,-0.448563q2.392242,-0.448532 3.999512,-1.794174q1.383011,-1.196106 1.981064,-2.840775q0.635437,-1.682037 0.635437,-4.07428z" stroke-miterlimit="4" stroke-width="0.56599" fill="#0000fd"/>
    </g>
   </g>
  </g>
 </g>
</svg>