<?xml version="1.0" encoding="UTF-8" standalone="no"?>
<!DOCTYPE svg PUBLIC "-//W3C//DTD SVG 1.1//EN" "http://www.w3.org/Graphics/SVG/1.1/DTD/svg11.dtd">
<svg version="1.1" xmlns="http://www.w3.org/2000/svg" xmlns:xlink="http://www.w3.org/1999/xlink" preserveAspectRatio="xMidYMid meet" viewBox="0 0 640 640" width="500" height="500"><defs><path d="M499 -1C499 -1 499 -1 499 -1C499 299 499 465.67 499 499C499 499 499 499 499 499C199 499 32.33 499 -1 499C-1 499 -1 499 -1 499C-1 199 -1 32.33 -1 -1C-1 -1 -1 -1 -1 -1C299 -1 465.67 -1 499 -1Z" id="bA9X9gUFE"></path><path d="M500 0C500 0 500 0 500 0C500 300 500 466.67 500 500C500 500 500 500 500 500C200 500 33.33 500 0 500C0 500 0 500 0 500C0 200 0 33.33 0 0C0 0 0 0 0 0C300 0 466.67 0 500 0Z" id="g1DYkx6qza"></path></defs><g><g><g><use xlink:href="#bA9X9gUFE" opacity="1" fill="#ffffff" fill-opacity="1"></use><g><use xlink:href="#bA9X9gUFE" opacity="1" fill-opacity="0" stroke="#000000" stroke-width="1" stroke-opacity="0"></use></g></g><g><use xlink:href="#g1DYkx6qza" opacity="1" fill="#000080" fill-opacity="1"></use></g></g></g></svg>