<svg width="480" height="500" xmlns="http://www.w3.org/2000/svg" preserveAspectRatio="xMidYMid meet">

 <g>
  <title>background</title>
  <rect fill="none" id="canvas_background" height="502" width="482" y="-1" x="-1"/>
 </g>
 <g>
  <title>Layer 1</title>
  <g fill="#000000" id="layer101">
   <path id="svg_1" d="m124,463c-44,-37 -61,-78 -61,-142c0,-74 52,-181 127,-260l54,-57l55,59c75,81 125,182 125,253c0,67 -18,111 -59,146c-30,25 -39,27 -121,27c-81,0 -91,-2 -120,-26zm138,-52c3,-16 -2,-22 -15,-22c-30,0 -60,-27 -66,-60c-5,-21 -12,-30 -27,-30c-16,0 -20,7 -20,33c0,41 23,75 64,93c41,18 60,14 64,-14z"/>
  </g>
  <path id="svg_2" d="m262.5,133.949997" opacity="0.5" stroke-width="1.5" stroke="#000" fill="#fff"/>
 </g>
</svg>