<?xml version="1.0" standalone="no"?>
<!DOCTYPE svg PUBLIC "-//W3C//DTD SVG 20010904//EN"
 "http://www.w3.org/TR/2001/REC-SVG-20010904/DTD/svg10.dtd">
<svg version="1.0" xmlns="http://www.w3.org/2000/svg"
 width="32.000000pt" height="32.000000pt" viewBox="0 0 32.000000 32.000000"
 preserveAspectRatio="xMidYMid meet">
<metadata>
Created by potrace 1.15, written by Peter Selinger 2001-2017
</metadata>
<g transform="translate(0.000000,32.000000) scale(0.100000,-0.100000)"
fill="#000000" stroke="none">
<path d="M0 240 c0 -50 6 -95 16 -121 16 -38 16 -43 0 -75 -20 -43 -20 -44 3
-44 10 0 22 8 26 18 6 16 7 16 19 -1 14 -19 46 -23 46 -7 0 6 -7 24 -15 41
-11 20 -13 35 -6 47 8 14 10 12 16 -13 15 -77 18 -80 63 -82 l42 -2 0 40 c0
33 3 39 20 39 18 0 19 -3 10 -20 -17 -32 4 -60 45 -60 l35 0 0 48 c0 71 -6 75
-94 73 -62 -1 -76 1 -76 14 0 9 -9 15 -22 15 l-22 0 22 16 c16 11 22 25 22 53
0 46 -14 61 -57 61 -26 0 -33 4 -33 20 0 16 -7 20 -30 20 l-30 0 0 -80z"/>
<path d="M170 240 l0 -80 38 -2 c89 -4 112 9 112 62 0 37 -32 63 -70 58 -26
-4 -30 -2 -30 19 0 18 -5 23 -25 23 -25 0 -25 -1 -25 -80z"/>
</g>
</svg>
