<svg version="1.0" xmlns="http://www.w3.org/2000/svg" width="128pt" height="128pt" viewBox="0 0 128 128" preserveAspectRatio="xMidYMid meet"  xmlns:xlink="http://www.w3.org/1999/xlink"><rect id="svgEditorBackground" x="0" y="0" width="128" height="128" style="fill:none;stroke:none;"/>
<metadata>
Created by potrace 1.15, written by Peter Selinger 2001-2017
</metadata>
<g transform="translate(0.000000,128.000000) scale(0.100000,-0.100000)" fill="#000000" stroke="none">
<path d="M710,1255c-5,-14,-13,-25,-18,-25c-5,0,-14,-11,-20,-25c-6,-14,-18,-25,-27,-25c-8,0,-15,-6,-16,-12c0,-7,-4,-4,-9,7c-7,18,-8,18,-15,-7c-8,-32,-14,-34,-41,-14c-17,13,-18,17,-5,38c13,21,13,22,-2,9c-9,-7,-23,-11,-31,-8c-8,3,-29,-3,-48,-12c-18,-10,-52,-22,-75,-26c-24,-4,-45,-11,-48,-16c-3,-4,-25,-17,-49,-27c-26,-12,-45,-28,-49,-41c-4,-18,-2,-21,14,-16c14,5,19,2,19,-13c0,-11,-7,-23,-16,-26c-22,-9,-24,-8,-24,9c0,13,-2,13,-14,3c-10,-9,-11,-15,-2,-20c8,-6,8,-8,-1,-8c-7,0,-13,-11,-13,-24c0,-14,-4,-28,-10,-31c-5,-3,-10,-15,-10,-27c0,-11,-8,-22,-20,-25c-11,-3,-20,-12,-20,-20c0,-12,-3,-13,-14,-4c-11,9,-22,9,-50,-3c-34,-14,-53,-32,-21,-20c8,4,15,1,15,-5c0,-7,5,-17,10,-24c53,-63,52,-61,33,-68c-10,-4,-21,-5,-26,-2c-4,2,-10,-4,-14,-14c-4,-10,-14,-23,-22,-30c-14,-10,-14,-12,2,-19c14,-5,15,-9,6,-14c-8,-5,4,-12,32,-18c24,-5,35,-10,25,-11c-19,-1,-19,-1,-1,-15c10,-7,16,-20,12,-29c-3,-8,1,-23,8,-34c8,-10,15,-27,15,-39c0,-12,11,-27,26,-34c22,-12,25,-19,19,-48c-5,-28,-3,-34,14,-39c12,-3,21,-12,21,-21c0,-8,23,-36,50,-62c28,-26,50,-53,50,-60c0,-7,3,-11,6,-7c8,7,-18,77,-28,77c-4,0,-8,8,-8,18c0,31,-33,162,-42,162c-13,0,-9,40,5,55c15,14,41,5,65,-24c12,-14,13,-14,6,4c-4,11,-9,38,-12,60c-3,35,0,44,28,69c46,40,77,46,128,24c24,-10,50,-18,58,-18c8,0,14,-7,14,-16c0,-12,-10,-15,-52,-13c-42,3,-54,0,-56,-13c-4,-23,14,-31,31,-13c9,8,29,15,46,15c26,0,31,-4,31,-25c0,-36,-20,-73,-43,-79c-12,-3,-18,-8,-14,-12c11,-12,56,25,63,51c3,14,10,25,15,25c5,0,9,6,9,14c0,13,20,26,41,26c6,0,17,-16,25,-35c8,-19,20,-35,27,-35c9,0,9,2,1,8c-24,15,-21,99,4,105c9,3,-15,3,-54,0c-47,-4,-74,-2,-78,6c-4,6,-19,11,-34,11c-18,0,-23,3,-14,8c21,14,-32,36,-65,27c-15,-4,-39,-9,-52,-11c-33,-7,-79,-44,-87,-72c-9,-31,-17,-21,-8,12c3,14,14,26,23,27c10,0,11,2,4,6c-17,6,-17,33,0,33c8,0,7,4,-3,10c-13,9,-13,10,0,10c13,0,13,1,0,10c-10,7,-12,12,-4,18c6,4,17,18,23,31c24,45,186,101,356,123c70,9,83,8,115,-8c74,-39,96,-76,99,-165c1,-8,10,-25,21,-37c11,-12,23,-36,27,-53c5,-27,3,-31,-13,-27c-13,2,-21,14,-24,38c-6,43,-43,66,-120,75c-41,5,-60,3,-75,-9c-23,-17,-14,-32,12,-21c51,23,113,16,153,-15c15,-12,18,-18,8,-14c-22,8,-23,-2,-2,-24c12,-12,15,-29,12,-69c-5,-58,-2,-65,11,-29c5,13,18,26,29,28c16,4,22,0,27,-21c4,-14,12,-29,18,-33c9,-6,9,-10,1,-15c-19,-14,-42,-209,-23,-197c5,3,9,11,9,19c0,7,6,15,14,18c8,3,18,26,21,52c4,25,14,49,23,54c10,6,17,25,18,54c3,69,38,118,121,170c54,34,56,39,38,83c-17,41,-59,79,-90,80c-45,2,-51,5,-63,37c-9,26,-26,40,-85,70c-40,20,-77,37,-82,37c-6,0,-20,21,-32,47c-16,36,-19,50,-10,56c7,5,3,6,-11,2c-16,-5,-24,-2,-28,12c-3,10,-10,26,-15,35c-12,24,-11,46,3,50c22,8,-2,25,-44,33c-24,4,-35,10,-25,12c24,6,22,23,-3,23c-13,0,-24,-10,-30,-25Z" style="fill:blue;"/>
<path d="M925,260c-8,-13,-91,-56,-147,-75c-38,-12,-146,-21,-219,-17c-14,1,-35,11,-47,22c-12,11,-28,20,-36,20c-8,0,-18,9,-21,20c-7,22,-35,28,-35,8c0,-9,-3,-8,-10,2c-5,8,-12,12,-15,8c-9,-8,5,-58,17,-58c5,0,7,-4,4,-9c-3,-4,6,-13,20,-20c14,-6,30,-25,36,-41c5,-17,16,-30,24,-30c8,0,14,-6,14,-13c0,-7,23,-23,50,-34c27,-12,50,-17,50,-13c0,5,-6,10,-12,13c-7,2,-5,3,4,2c10,-2,37,2,60,7c24,6,49,11,56,11c6,0,12,5,12,10c0,5,12,6,28,3c20,-5,23,-4,12,4c-12,8,-11,10,8,10c12,0,26,8,29,18c9,21,28,42,41,42c6,0,12,4,14,8c2,4,17,18,34,30c18,12,34,34,37,49c6,31,3,40,-8,23Z" style="fill:red;"/>
</g>
</svg>