<?xml version="1.0" standalone="no"?>
<!DOCTYPE svg PUBLIC "-//W3C//DTD SVG 20010904//EN"
 "http://www.w3.org/TR/2001/REC-SVG-20010904/DTD/svg10.dtd">
<svg version="1.0" xmlns="http://www.w3.org/2000/svg"
 width="128.000000pt" height="128.000000pt" viewBox="0 0 128.000000 128.000000"
 preserveAspectRatio="xMidYMid meet">
<metadata>
Created by potrace 1.15, written by Peter Selinger 2001-2017
</metadata>
<g transform="translate(0.000000,128.000000) scale(0.100000,-0.100000)"
fill="#000000" stroke="none">
<path d="M710 1255 c-5 -14 -13 -25 -18 -25 -5 0 -14 -11 -20 -25 -6 -14 -18
-25 -27 -25 -8 0 -15 -6 -16 -12 0 -7 -4 -4 -9 7 -7 18 -8 18 -15 -7 -8 -32
-14 -34 -41 -14 -17 13 -18 17 -5 38 13 21 13 22 -2 9 -9 -7 -23 -11 -31 -8
-8 3 -29 -3 -48 -12 -18 -10 -52 -22 -75 -26 -24 -4 -45 -11 -48 -16 -3 -4
-25 -17 -49 -27 -26 -12 -45 -28 -49 -41 -4 -18 -2 -21 14 -16 14 5 19 2 19
-13 0 -11 -7 -23 -16 -26 -22 -9 -24 -8 -24 9 0 13 -2 13 -14 3 -10 -9 -11
-15 -2 -20 8 -6 8 -8 -1 -8 -7 0 -13 -11 -13 -24 0 -14 -4 -28 -10 -31 -5 -3
-10 -15 -10 -27 0 -11 -8 -22 -20 -25 -11 -3 -20 -12 -20 -20 0 -12 -3 -13
-14 -4 -11 9 -22 9 -50 -3 -34 -14 -53 -32 -21 -20 8 4 15 1 15 -5 0 -7 5 -17
10 -24 53 -63 52 -61 33 -68 -10 -4 -21 -5 -26 -2 -4 2 -10 -4 -14 -14 -4 -10
-14 -23 -22 -30 -14 -10 -14 -12 2 -19 14 -5 15 -9 6 -14 -8 -5 4 -12 32 -18
24 -5 35 -10 25 -11 -19 -1 -19 -1 -1 -15 10 -7 16 -20 12 -29 -3 -8 1 -23 8
-34 8 -10 15 -27 15 -39 0 -12 11 -27 26 -34 22 -12 25 -19 19 -48 -5 -28 -3
-34 14 -39 12 -3 21 -12 21 -21 0 -8 23 -36 50 -62 28 -26 50 -53 50 -60 0 -7
3 -11 6 -7 8 7 -18 77 -28 77 -4 0 -8 8 -8 18 0 31 -33 162 -42 162 -13 0 -9
40 5 55 15 14 41 5 65 -24 12 -14 13 -14 6 4 -4 11 -9 38 -12 60 -3 35 0 44
28 69 46 40 77 46 128 24 24 -10 50 -18 58 -18 8 0 14 -7 14 -16 0 -12 -10
-15 -52 -13 -42 3 -54 0 -56 -13 -4 -23 14 -31 31 -13 9 8 29 15 46 15 26 0
31 -4 31 -25 0 -36 -20 -73 -43 -79 -12 -3 -18 -8 -14 -12 11 -12 56 25 63 51
3 14 10 25 15 25 5 0 9 6 9 14 0 13 20 26 41 26 6 0 17 -16 25 -35 8 -19 20
-35 27 -35 9 0 9 2 1 8 -24 15 -21 99 4 105 9 3 -15 3 -54 0 -47 -4 -74 -2
-78 6 -4 6 -19 11 -34 11 -18 0 -23 3 -14 8 21 14 -32 36 -65 27 -15 -4 -39
-9 -52 -11 -33 -7 -79 -44 -87 -72 -9 -31 -17 -21 -8 12 3 14 14 26 23 27 10
0 11 2 4 6 -17 6 -17 33 0 33 8 0 7 4 -3 10 -13 9 -13 10 0 10 13 0 13 1 0 10
-10 7 -12 12 -4 18 6 4 17 18 23 31 24 45 186 101 356 123 70 9 83 8 115 -8
74 -39 96 -76 99 -165 1 -8 10 -25 21 -37 11 -12 23 -36 27 -53 5 -27 3 -31
-13 -27 -13 2 -21 14 -24 38 -6 43 -43 66 -120 75 -41 5 -60 3 -75 -9 -23 -17
-14 -32 12 -21 51 23 113 16 153 -15 15 -12 18 -18 8 -14 -22 8 -23 -2 -2 -24
12 -12 15 -29 12 -69 -5 -58 -2 -65 11 -29 5 13 18 26 29 28 16 4 22 0 27 -21
4 -14 12 -29 18 -33 9 -6 9 -10 1 -15 -19 -14 -42 -209 -23 -197 5 3 9 11 9
19 0 7 6 15 14 18 8 3 18 26 21 52 4 25 14 49 23 54 10 6 17 25 18 54 3 69 38
118 121 170 54 34 56 39 38 83 -17 41 -59 79 -90 80 -45 2 -51 5 -63 37 -9 26
-26 40 -85 70 -40 20 -77 37 -82 37 -6 0 -20 21 -32 47 -16 36 -19 50 -10 56
7 5 3 6 -11 2 -16 -5 -24 -2 -28 12 -3 10 -10 26 -15 35 -12 24 -11 46 3 50
22 8 -2 25 -44 33 -24 4 -35 10 -25 12 24 6 22 23 -3 23 -13 0 -24 -10 -30
-25z"/>
<path d="M925 260 c-8 -13 -91 -56 -147 -75 -38 -12 -146 -21 -219 -17 -14 1
-35 11 -47 22 -12 11 -28 20 -36 20 -8 0 -18 9 -21 20 -7 22 -35 28 -35 8 0
-9 -3 -8 -10 2 -5 8 -12 12 -15 8 -9 -8 5 -58 17 -58 5 0 7 -4 4 -9 -3 -4 6
-13 20 -20 14 -6 30 -25 36 -41 5 -17 16 -30 24 -30 8 0 14 -6 14 -13 0 -7 23
-23 50 -34 27 -12 50 -17 50 -13 0 5 -6 10 -12 13 -7 2 -5 3 4 2 10 -2 37 2
60 7 24 6 49 11 56 11 6 0 12 5 12 10 0 5 12 6 28 3 20 -5 23 -4 12 4 -12 8
-11 10 8 10 12 0 26 8 29 18 9 21 28 42 41 42 6 0 12 4 14 8 2 4 17 18 34 30
18 12 34 34 37 49 6 31 3 40 -8 23z"/>
</g>
</svg>
